<svg width="1080" height="1920" viewBox="0 0 1080 1920" fill="none" xmlns="http://www.w3.org/2000/svg">
  <defs>
    <linearGradient id="storybg" x1="132" y1="89" x2="944" y2="1762" gradientUnits="userSpaceOnUse">
      <stop stop-color="#041D53"/>
      <stop offset="0.55" stop-color="#082B72"/>
      <stop offset="1" stop-color="#041434"/>
    </linearGradient>
    <linearGradient id="flow" x1="311" y1="873" x2="776" y2="1456" gradientUnits="userSpaceOnUse">
      <stop stop-color="#F57C00"/>
      <stop offset="1" stop-color="#26C6DA"/>
    </linearGradient>
    <filter id="drop" x="0" y="0" width="1080" height="1920" filterUnits="userSpaceOnUse" color-interpolation-filters="sRGB">
      <feDropShadow dx="0" dy="24" stdDeviation="40" flood-color="#000C24" flood-opacity="0.35"/>
    </filter>
  </defs>

  <rect width="1080" height="1920" fill="url(#storybg)"/>
  <circle cx="862" cy="226" r="210" fill="#F57C00" fill-opacity="0.12"/>
  <circle cx="180" cy="1580" r="240" fill="#26C6DA" fill-opacity="0.10"/>
  <path d="M74 1424C258 1318 474 1361 587 1424C700 1487 839 1571 1005 1500V1920H74V1424Z" fill="#020F2A" fill-opacity="0.55"/>

  <rect x="90" y="96" width="248" height="58" rx="29" fill="#F7A63A"/>
  <text x="214" y="132" text-anchor="middle" fill="#08214D" font-family="Arial, Helvetica, sans-serif" font-size="24" font-weight="800">STORY PARA REEL</text>

  <text x="90" y="254" fill="white" font-family="Arial, Helvetica, sans-serif" font-size="88" font-weight="800">
    <tspan x="90" dy="0">Tu negocio</tspan>
    <tspan x="90" dy="96">vende por</tspan>
    <tspan x="90" dy="96">WhatsApp?</tspan>
  </text>

  <text x="90" y="612" fill="#D4E6FF" font-family="Arial, Helvetica, sans-serif" font-size="38" font-weight="500">
    <tspan x="90" dy="0">Entonces necesitas una web que explique,</tspan>
    <tspan x="90" dy="50">respalde y lleve a tu cliente al contacto.</tspan>
  </text>

  <g filter="url(#drop)">
    <rect x="296" y="784" width="488" height="832" rx="64" fill="#F4F8FF"/>
    <rect x="486" y="826" width="108" height="14" rx="7" fill="#D3DFF2"/>
    <rect x="338" y="890" width="404" height="248" rx="34" fill="url(#flow)"/>
    <text x="540" y="980" text-anchor="middle" fill="white" font-family="Arial, Helvetica, sans-serif" font-size="34" font-weight="700">Tu web puede</text>
    <text x="540" y="1026" text-anchor="middle" fill="white" font-family="Arial, Helvetica, sans-serif" font-size="34" font-weight="700">mostrar servicios,</text>
    <text x="540" y="1072" text-anchor="middle" fill="white" font-family="Arial, Helvetica, sans-serif" font-size="34" font-weight="700">pruebas y contacto</text>

    <rect x="338" y="1182" width="192" height="56" rx="28" fill="#001F4D"/>
    <text x="434" y="1218" text-anchor="middle" fill="white" font-family="Arial, Helvetica, sans-serif" font-size="22" font-weight="700">Solicitar asesoria</text>

    <rect x="338" y="1288" width="258" height="78" rx="26" fill="#E9F1FF"/>
    <text x="368" y="1335" fill="#0E2758" font-family="Arial, Helvetica, sans-serif" font-size="27" font-weight="700">Cliente:</text>
    <text x="480" y="1335" fill="#486381" font-family="Arial, Helvetica, sans-serif" font-size="26">Hola, quiero cotizar</text>

    <rect x="484" y="1396" width="258" height="92" rx="26" fill="#D8F6F2"/>
    <text x="516" y="1442" fill="#0E2758" font-family="Arial, Helvetica, sans-serif" font-size="27" font-weight="700">Negocio:</text>
    <text x="516" y="1478" fill="#486381" font-family="Arial, Helvetica, sans-serif" font-size="26">Perfecto, aqui esta toda</text>
    <text x="516" y="1510" fill="#486381" font-family="Arial, Helvetica, sans-serif" font-size="26">la info en nuestra web.</text>
  </g>

  <rect x="90" y="1668" width="900" height="132" rx="34" fill="#FFFFFF"/>
  <text x="142" y="1740" fill="#08214D" font-family="Arial, Helvetica, sans-serif" font-size="42" font-weight="800">Responde "WEB" y te digo como la haria</text>
  <text x="142" y="1784" fill="#4D6484" font-family="Arial, Helvetica, sans-serif" font-size="28" font-weight="500">para tu negocio.</text>

  <text x="90" y="1864" fill="#BBD4FF" font-family="Arial, Helvetica, sans-serif" font-size="24" font-weight="700">CREAR SYSTEM</text>
  <text x="990" y="1864" text-anchor="end" fill="#BBD4FF" font-family="Arial, Helvetica, sans-serif" font-size="24" font-weight="500">diseno web y presencia digital</text>
</svg>
